<?xml version="1.0" encoding="utf-8"?>
<!-- Generator: Adobe Illustrator 27.4.1, SVG Export Plug-In . SVG Version: 6.00 Build 0)  -->
<svg version="1.1" id="Layer_1" xmlns="http://www.w3.org/2000/svg" xmlns:xlink="http://www.w3.org/1999/xlink" x="0px" y="0px"
	 viewBox="0 0 17.2 5.25" style="enable-background:new 0 0 17.2 5.25;" xml:space="preserve">
<style type="text/css">
	.st0{fill:#46C0BC;}
	.st1{fill:#F2B336;}
</style>
<g>
	<path class="st0" d="M2.53,2.34l1.25-1.15H3.8v2.61H3.03v-0.9L2.53,3.33L2.04,2.88v0.9H1.27V1.18h0.01L2.53,2.34z"/>
	<path class="st1" d="M4.75,3.1v0.15h0.92v0.53H4.14V1.94H5.3v0.53H4.75v0.14h0.72v0.5H4.75z"/>
	<path class="st1" d="M6.81,2.72l0.93-0.86h0.01v1.93H7.17V3.12L6.81,3.45L6.44,3.12v0.67H5.87V1.86h0.01L6.81,2.72z"/>
	<path class="st1" d="M8.43,3.72c-0.15-0.09-0.27-0.2-0.35-0.35c-0.09-0.15-0.13-0.32-0.13-0.5c0-0.19,0.04-0.35,0.13-0.5
		c0.09-0.15,0.2-0.27,0.35-0.36c0.15-0.09,0.32-0.13,0.5-0.13c0.19,0,0.36,0.04,0.5,0.13c0.15,0.09,0.27,0.2,0.35,0.36
		c0.08,0.15,0.13,0.32,0.13,0.5c0,0.19-0.04,0.35-0.13,0.5c-0.08,0.15-0.2,0.27-0.35,0.35c-0.15,0.09-0.32,0.13-0.5,0.13
		C8.75,3.85,8.58,3.81,8.43,3.72z M9.21,3.17c0.07-0.08,0.11-0.18,0.11-0.31c0-0.13-0.04-0.23-0.11-0.31
		C9.14,2.47,9.05,2.43,8.94,2.43c-0.11,0-0.21,0.04-0.28,0.12C8.58,2.63,8.55,2.74,8.55,2.86c0,0.13,0.04,0.23,0.11,0.31
		C8.73,3.25,8.82,3.3,8.94,3.3C9.05,3.3,9.14,3.25,9.21,3.17z"/>
	<path class="st1" d="M11.79,3.51l-0.4,0.4l-0.65-0.61v0.48h-0.61V1.94h1c0.17,0,0.31,0.05,0.42,0.16c0.1,0.1,0.16,0.24,0.16,0.41
		c0,0.14-0.04,0.25-0.1,0.35c-0.07,0.1-0.17,0.16-0.29,0.19L11.79,3.51z M10.73,2.44v0.28h0.22c0.05,0,0.09-0.01,0.11-0.04
		c0.03-0.03,0.04-0.06,0.04-0.1c0-0.04-0.01-0.07-0.04-0.1C11.03,2.45,11,2.44,10.95,2.44H10.73z"/>
	<path class="st1" d="M12.82,2.47l0.52-0.63l0.44,0.4L12.4,3.91l-0.45-0.39l0.49-0.59l-0.62-0.69l0.44-0.4L12.82,2.47z"/>
	<path class="st0" d="M16.45,2.18c0.02,0.11,0.03,0.23,0.03,0.35c0,0.26-0.05,0.49-0.16,0.69c-0.11,0.2-0.26,0.36-0.46,0.48
		c-0.2,0.12-0.42,0.17-0.68,0.17c-0.24,0-0.46-0.06-0.66-0.18c-0.2-0.12-0.36-0.28-0.48-0.49c-0.12-0.2-0.18-0.43-0.18-0.67
		c0-0.24,0.06-0.46,0.18-0.67c0.12-0.2,0.28-0.37,0.48-0.49c0.2-0.12,0.42-0.18,0.66-0.18c0.15,0,0.29,0.03,0.44,0.08
		c0.15,0.06,0.28,0.13,0.38,0.22l-0.48,0.56c-0.04-0.04-0.1-0.06-0.15-0.08c-0.06-0.02-0.12-0.03-0.18-0.03
		c-0.1,0-0.2,0.03-0.28,0.08c-0.08,0.05-0.15,0.12-0.19,0.21c-0.05,0.09-0.07,0.19-0.07,0.29c0,0.11,0.02,0.2,0.07,0.29
		c0.05,0.09,0.11,0.16,0.19,0.21C15,3.1,15.09,3.12,15.2,3.12c0.1,0,0.19-0.03,0.27-0.08c0.08-0.05,0.14-0.12,0.19-0.21h-0.46V2.18
		H16.45z"/>
</g>
<g>
	<path class="st0" d="M-266.58,221.95l15.04-13.84h0.15v31.23h-9.3v-10.84l-5.9,5.4l-5.9-5.4v10.84h-9.3V208.1h0.15L-266.58,221.95z
		"/>
	<path class="st1" d="M-240.04,231.12v1.81h11.06v6.4h-18.32v-22.2h13.88v6.4h-6.62v1.63h8.62v5.96H-240.04z"/>
	<path class="st1" d="M-215.37,226.46l11.14-10.25h0.11v23.12H-211v-8.03l-4.37,4l-4.37-4v8.03h-6.88v-23.12h0.11L-215.37,226.46z"
		/>
	<path class="st1" d="M-195.89,238.52c-1.79-1.04-3.19-2.45-4.22-4.25c-1.02-1.8-1.54-3.81-1.54-6.03s0.51-4.23,1.54-6.03
		c1.02-1.8,2.43-3.22,4.22-4.25c1.79-1.04,3.8-1.55,6.05-1.55c2.24,0,4.26,0.52,6.05,1.55s3.19,2.46,4.2,4.25
		c1.01,1.8,1.52,3.81,1.52,6.03s-0.51,4.23-1.52,6.03c-1.01,1.8-2.41,3.22-4.2,4.25s-3.81,1.55-6.05,1.55
		C-192.08,240.08-194.1,239.56-195.89,238.52z M-186.52,231.96c0.88-0.97,1.31-2.21,1.31-3.72s-0.44-2.74-1.31-3.72
		c-0.88-0.97-1.98-1.46-3.31-1.46c-1.36,0-2.47,0.49-3.35,1.46c-0.88,0.97-1.31,2.21-1.31,3.72s0.44,2.74,1.31,3.72
		s1.99,1.46,3.35,1.46C-188.5,233.42-187.4,232.93-186.52,231.96z"/>
	<path class="st1" d="M-155.69,236.04l-4.81,4.81l-7.84-7.29v5.77h-7.25v-22.2h11.99c2.07,0,3.73,0.62,4.98,1.87
		c1.25,1.25,1.87,2.89,1.87,4.94c0,1.65-0.42,3.05-1.26,4.2c-0.84,1.15-2,1.91-3.48,2.28L-155.69,236.04z M-168.34,223.17v3.33h2.63
		c0.57,0,1.02-0.15,1.37-0.46c0.35-0.31,0.52-0.71,0.52-1.2c0-0.49-0.17-0.89-0.52-1.2c-0.35-0.31-0.8-0.46-1.37-0.46H-168.34z"/>
	<path class="st1" d="M-143.33,223.54l6.22-7.51l5.29,4.77l-16.5,19.98l-5.4-4.66l5.85-7.07l-7.47-8.21l5.29-4.81L-143.33,223.54z"
		/>
	<path class="st0" d="M-99.8,220c0.27,1.3,0.4,2.71,0.4,4.25c0,3.07-0.65,5.82-1.95,8.27c-1.3,2.45-3.13,4.36-5.5,5.75
		s-5.06,2.07-8.09,2.07c-2.87,0-5.51-0.72-7.95-2.15c-2.43-1.43-4.36-3.37-5.77-5.82s-2.12-5.12-2.12-8.02
		c0-2.9,0.71-5.57,2.12-8.02s3.34-4.39,5.77-5.82s5.08-2.15,7.95-2.15c1.77,0,3.53,0.33,5.3,1c1.77,0.67,3.3,1.55,4.6,2.65
		l-5.75,6.7c-0.53-0.43-1.15-0.77-1.85-1c-0.7-0.23-1.42-0.35-2.15-0.35c-1.23,0-2.35,0.32-3.35,0.95c-1,0.63-1.77,1.48-2.32,2.55
		s-0.82,2.23-0.82,3.5c0,1.27,0.27,2.43,0.82,3.5c0.55,1.07,1.32,1.92,2.32,2.55c1,0.63,2.12,0.95,3.35,0.95
		c1.2,0,2.29-0.31,3.27-0.92s1.72-1.46,2.22-2.52h-5.55V220H-99.8z"/>
</g>
</svg>
