<?xml version="1.0" encoding="utf-8"?>
<!-- Generator: Adobe Illustrator 27.4.1, SVG Export Plug-In . SVG Version: 6.00 Build 0)  -->
<svg version="1.1" xmlns="http://www.w3.org/2000/svg" xmlns:xlink="http://www.w3.org/1999/xlink" x="0px" y="0px"
	 viewBox="0 0 250 207.47" style="enable-background:new 0 0 250 207.47;" xml:space="preserve">
<style type="text/css">
	.st0{fill:#FFFFFF;}
	.st1{fill:#C4CCCE;}
</style>
<g id="BACKGROUND">
	<rect class="st0" width="500" height="500"/>
</g>
<g id="OBJECTS">
	<g>
		<path class="st1" d="M78.77,120.47v9.62h58.7v33.97H40.28V46.26h73.63v33.97H78.77v8.64h45.75v31.61H78.77z"/>
		<path class="st1" d="M169.02,127.32c0.52,4.34,2.02,7.85,4.5,10.54c2.48,2.69,5.32,4.03,8.53,4.03c5.79,0,8.68-2.22,8.68-6.67
			c0-1.96-1.04-3.54-3.1-4.73c-2.07-1.19-5.73-2.71-11-4.57l-4.19-1.55c-7.96-2.89-14.1-6.59-18.45-11.08
			c-4.34-4.5-6.51-10.36-6.51-17.59c0-5.37,1.5-10.18,4.5-14.41c3-4.24,7.08-7.52,12.24-9.84c5.17-2.33,10.95-3.49,17.36-3.49
			c10.95,0,19.58,2.38,25.89,7.13c6.3,4.75,10.07,11.26,11.31,19.53l-28.05,5.74c-0.41-2.58-1.24-4.7-2.48-6.35
			c-1.24-1.65-2.84-2.48-4.8-2.48c-3.72,0-5.58,1.81-5.58,5.42c0,1.76,1.06,3.18,3.18,4.26c2.12,1.08,5.66,2.4,10.62,3.95l5.73,1.86
			c7.75,2.58,13.85,6.04,18.29,10.38c4.44,4.34,6.66,10.13,6.66,17.36c0,10.13-3.72,18.06-11.16,23.79
			c-7.44,5.74-17.26,8.6-29.45,8.6c-6.82,0-13.23-1.19-19.22-3.56c-5.99-2.38-11.03-6.1-15.11-11.16
			c-4.08-5.06-6.49-11.47-7.21-19.22L169.02,127.32z"/>
	</g>
</g>
</svg>
